<?xml version="1.0" encoding="UTF-8" standalone="no"?>
<!-- Creator: CorelDRAW (Deneme Sürümü) -->

<svg
   xml:space="preserve"
   width="500mm"
   height="500mm"
   version="1.1"
   style="shape-rendering:geometricPrecision; text-rendering:geometricPrecision; image-rendering:optimizeQuality; fill-rule:evenodd; clip-rule:evenodd"
   viewBox="0 0 50000 50000"
   id="svg4"
   sodipodi:docname="vector.svg"
   inkscape:version="1.3.2 (091e20e, 2023-11-25, custom)"
   xmlns:inkscape="http://www.inkscape.org/namespaces/inkscape"
   xmlns:sodipodi="http://sodipodi.sourceforge.net/DTD/sodipodi-0.dtd"
   xmlns="http://www.w3.org/2000/svg"
   xmlns:svg="http://www.w3.org/2000/svg"><sodipodi:namedview
   id="namedview4"
   pagecolor="#ffffff"
   bordercolor="#000000"
   borderopacity="0.25"
   inkscape:showpageshadow="2"
   inkscape:pageopacity="0.0"
   inkscape:pagecheckerboard="0"
   inkscape:deskcolor="#d1d1d1"
   inkscape:document-units="mm"
   inkscape:zoom="0.43444583"
   inkscape:cx="944.88189"
   inkscape:cy="944.88189"
   inkscape:window-width="1920"
   inkscape:window-height="1017"
   inkscape:window-x="-8"
   inkscape:window-y="-8"
   inkscape:window-maximized="1"
   inkscape:current-layer="Katman_x0020_1" />
 <defs
   id="defs1">
  <style
   type="text/css"
   id="style1">
   <![CDATA[
    .fil1 {fill:#001F3F;fill-rule:nonzero}
    .fil0 {fill:#BFC0C0;fill-rule:nonzero}
   ]]>
  </style>
 </defs>
 <g
   id="Katman_x0020_1"
   inkscape:label="Katman 1">
  <metadata
   id="CorelCorpID_0Corel-Layer" />
  <path
   class="fil0"
   d="M25139.42 32187.78c-1679.92,0 -3250.79,-474.3 -4587.12,-1295.09l-818.48 2038.24c1596.1,908.56 3441.2,1428.4 5405.6,1428.4 1964.39,0 3809.37,-519.84 5405.59,-1428.49l-818.48 -2038.03c-1336.24,820.76 -2907.22,1294.97 -4587.11,1294.97z"
   id="path1"
   style="fill:#291f19;fill-opacity:1" />
  <path
   class="fil0"
   d="M33872.22 22389.87l2182.81 0c-466.96,-5102.98 -4445.72,-9205.11 -9492.02,-9862.51l967.95 2410.31c3375.84,955.89 5932.26,3882.05 6341.26,7452.2z"
   id="path2"
   style="fill:#291f19;fill-opacity:1" />
  <path
   class="fil0"
   d="M17563.07 27847.75c-770.41,-1306.49 -1214.54,-2827.41 -1214.54,-4450.86 0,-4017.92 2710.61,-7412.39 6398.4,-8457.24l968.98 -2412.79c-5374.59,700 -9538.84,5307.64 -9538.84,10870.03 0,2594.34 906.36,4980.56 2418.47,6860.1l967.53 -2409.24z"
   id="path3"
   style="fill:#291f19;fill-opacity:1" />
  <path
   class="fil1"
   d="M33683.38 30257.32c1282.71,-1594.65 2129.37,-3554.12 2356.57,-5695.95l-5580.54 0 -4828.62 -12024.46 -796.54 -15.34c-53.31,-5.4 -127.96,3.02 -179.02,-2.61l-8780.96 21865.52 2340.11 0 6925.04 -17244.35 2979.99 7421.24 -5024.32 0 -872.22 2171.46 6768.65 0 3072.48 7651.65 2340.03 0 -3072.61 -7651.65 1938.75 0c-159.12,386.2 -344.1,758.98 -554.23,1115.55l967.44 2408.94z"
   id="path4"
   style="fill:#ed0040;fill-opacity:1" />
 </g>
</svg>
